<svg width="21" height="24" viewBox="0 0 21 24" fill="none" xmlns="http://www.w3.org/2000/svg">
<path d="M20.865 6.61478V17.0475C20.865 17.2959 20.7996 17.5313 20.682 17.7404C20.6951 17.7012 21.0088 16.956 19.8191 16.2631C19.8061 16.2631 19.8061 16.2501 19.793 16.2501L12.9816 12.328C12.6025 12.1057 12.6025 11.5697 12.9816 11.3474L19.793 7.41227C21.0088 6.70629 20.6951 5.94802 20.682 5.92188C20.7996 6.13105 20.865 6.37945 20.865 6.61478Z" fill="white"/>
<path d="M7.8834 11.3474C8.26254 11.5697 8.26254 12.1057 7.8834 12.328L1.07204 16.2631C1.04589 16.2762 1.01974 16.2893 1.00667 16.3023C-0.0784419 16.956 0.14381 17.6489 0.183031 17.7404C0.0653682 17.5313 0 17.309 0 17.0606V16.8776V6.79781V6.61478C0 6.36638 0.0653682 6.13105 0.183031 5.92188C0.169957 5.9611 -0.130736 6.68015 1.00667 7.37305C1.03282 7.38612 1.05896 7.3992 1.07204 7.41227L7.8834 11.3474Z" fill="white"/>
<path d="M20.0549 5.64781C20.0549 5.66088 20.0549 5.67396 20.0549 5.68703C20.0288 5.97465 19.8458 6.40608 19.1267 6.82444L15.6884 8.81163L10.4327 5.77855L5.17714 8.81163L1.73878 6.82444C1.01973 6.40608 0.836694 5.97465 0.810547 5.68703C0.810547 5.67396 0.810547 5.66088 0.810547 5.64781C0.810547 5.54322 0.836694 5.34712 1.07202 5.20331L1.08509 5.19023C2.45783 4.40582 9.59603 0.274546 9.59603 0.274546L9.75292 0.183031C9.97517 0.0522945 10.2105 0 10.4458 0C10.6811 0 10.9295 0.0653682 11.1387 0.183031L11.2956 0.274546C11.2956 0.274546 18.4338 4.39274 19.8065 5.19023L19.8196 5.20331C20.0288 5.34712 20.0549 5.54322 20.0549 5.64781Z" fill="white"/>
<path d="M20.0537 18.0291C20.0537 18.1336 20.0276 18.3297 19.7923 18.4736L19.7792 18.4866C18.4065 19.2711 11.2683 23.4023 11.2683 23.4023L11.1114 23.4938C10.8891 23.6246 10.6538 23.6769 10.4185 23.6769C10.1831 23.6769 9.93475 23.6115 9.72557 23.4938L9.56869 23.4023C9.56869 23.4023 2.43048 19.2841 1.05775 18.4866L1.04468 18.4736C0.822424 18.3297 0.783203 18.1336 0.783203 18.0291C0.783203 18.016 0.783203 18.0029 0.783203 17.9898C0.80935 17.7022 0.992381 17.2708 1.71143 16.8524L5.1498 14.8652L10.3923 17.8983L15.6349 14.8652L19.0732 16.8524C19.7923 17.2708 19.9753 17.7022 20.0015 17.9898C20.0537 18.0029 20.0537 18.016 20.0537 18.0291Z" fill="white"/>
</svg>
